<svg width="243" height="53" viewBox="0 0 243 53" fill="none" xmlns="http://www.w3.org/2000/svg">
<path d="M21.352 15.56V20.082H14.042V38H8.194V20.082H0.85V15.56H21.352ZM28.7486 38.34C26.8673 38.34 25.2353 37.9887 23.8526 37.286C22.4926 36.5833 21.4386 35.5747 20.6906 34.26C19.9426 32.9453 19.5686 31.3587 19.5686 29.5C19.5686 27.6413 19.9426 26.0547 20.6906 24.74C21.4386 23.4253 22.4813 22.4167 23.8186 21.714C25.1786 21.0113 26.7313 20.66 28.4766 20.66C30.2673 20.66 31.7859 21.0113 33.0326 21.714C34.3019 22.394 35.2653 23.346 35.9226 24.57C36.5799 25.7713 36.9086 27.154 36.9086 28.718C36.9086 29.126 36.8973 29.534 36.8746 29.942C36.8519 30.35 36.8179 30.69 36.7726 30.962H23.3086V27.868H34.2226L31.4686 28.922C31.4686 27.562 31.2193 26.5193 30.7206 25.794C30.2446 25.0687 29.4966 24.706 28.4766 24.706C27.7513 24.706 27.1279 24.876 26.6066 25.216C26.1079 25.556 25.7226 26.0887 25.4506 26.814C25.2013 27.5393 25.0766 28.4687 25.0766 29.602C25.0766 30.7127 25.2239 31.6193 25.5186 32.322C25.8133 33.002 26.2326 33.5007 26.7766 33.818C27.3206 34.1127 27.9779 34.26 28.7486 34.26C29.6099 34.26 30.2899 34.09 30.7886 33.75C31.3099 33.41 31.6953 32.934 31.9446 32.322L36.5686 33.852C36.2513 34.8267 35.6959 35.654 34.9026 36.334C34.1319 36.9913 33.2026 37.49 32.1146 37.83C31.0493 38.17 29.9273 38.34 28.7486 38.34ZM47.52 20.66C49.2427 20.66 50.6707 20.9093 51.804 21.408C52.96 21.884 53.8554 22.53 54.49 23.346C55.1474 24.1393 55.5554 25.0007 55.714 25.93L50.376 27.698C50.2174 26.7233 49.9227 25.998 49.492 25.522C49.084 25.0233 48.4834 24.774 47.69 24.774C46.9647 24.774 46.3527 24.944 45.854 25.284C45.378 25.6013 45.0154 26.1227 44.766 26.848C44.5167 27.5507 44.392 28.4573 44.392 29.568C44.392 30.6787 44.528 31.5853 44.8 32.288C45.072 32.968 45.4574 33.4667 45.956 33.784C46.4547 34.0787 47.044 34.226 47.724 34.226C48.2907 34.226 48.7554 34.124 49.118 33.92C49.5034 33.6933 49.8207 33.376 50.07 32.968C50.3194 32.56 50.478 32.0613 50.546 31.472L55.748 33.138C55.5894 34.1353 55.1587 35.0307 54.456 35.824C53.776 36.5947 52.8694 37.2067 51.736 37.66C50.6027 38.1133 49.2767 38.34 47.758 38.34C45.8994 38.34 44.2787 38 42.896 37.32C41.5134 36.6173 40.448 35.6087 39.7 34.294C38.952 32.9567 38.578 31.3587 38.578 29.5C38.578 27.6413 38.952 26.0547 39.7 24.74C40.448 23.4027 41.4907 22.394 42.828 21.714C44.188 21.0113 45.752 20.66 47.52 20.66ZM58.0731 38V13.792H63.8531V24.094C64.3517 22.9607 65.0657 22.1107 65.9951 21.544C66.9244 20.9547 68.0011 20.66 69.2251 20.66C70.4037 20.66 71.4237 20.8867 72.2851 21.34C73.1691 21.7933 73.8604 22.462 74.3591 23.346C74.8577 24.23 75.1071 25.3407 75.1071 26.678V38H69.3271V28.276C69.3271 27.052 69.1004 26.2133 68.6471 25.76C68.2164 25.284 67.6384 25.046 66.9131 25.046C66.3691 25.046 65.8591 25.182 65.3831 25.454C64.9071 25.726 64.5331 26.1567 64.2611 26.746C63.9891 27.3353 63.8531 28.106 63.8531 29.058V38H58.0731ZM96.1945 15.56V20.082H88.8845V38H83.0365V20.082H75.6925V15.56H96.1945ZM96.2912 38V21H101.391L101.629 24.672C102.06 23.4027 102.695 22.4167 103.533 21.714C104.395 21.0113 105.483 20.66 106.797 20.66C107.228 20.66 107.591 20.694 107.885 20.762C108.203 20.83 108.452 20.9207 108.633 21.034L108.055 25.794C107.829 25.7033 107.534 25.6353 107.171 25.59C106.831 25.522 106.412 25.488 105.913 25.488C105.233 25.488 104.599 25.6353 104.009 25.93C103.42 26.2247 102.944 26.6667 102.581 27.256C102.241 27.8227 102.071 28.548 102.071 29.432V38H96.2912ZM119.541 27.222C119.541 26.4287 119.314 25.8053 118.861 25.352C118.43 24.876 117.841 24.638 117.093 24.638C116.345 24.638 115.699 24.8307 115.155 25.216C114.633 25.5787 114.271 26.236 114.067 27.188L109.171 26.032C109.488 24.4 110.327 23.0967 111.687 22.122C113.047 21.1473 114.962 20.66 117.433 20.66C119.087 20.66 120.493 20.9093 121.649 21.408C122.827 21.884 123.723 22.6093 124.335 23.584C124.969 24.536 125.287 25.7147 125.287 27.12V33.342C125.287 34.226 125.683 34.668 126.477 34.668C126.885 34.668 127.213 34.6227 127.463 34.532L127.123 37.83C126.443 38.1473 125.615 38.306 124.641 38.306C123.757 38.306 122.975 38.17 122.295 37.898C121.615 37.6033 121.082 37.1727 120.697 36.606C120.311 36.0167 120.119 35.28 120.119 34.396V34.192L120.765 33.954C120.765 34.9287 120.47 35.7447 119.881 36.402C119.314 37.0593 118.566 37.5467 117.637 37.864C116.73 38.1813 115.778 38.34 114.781 38.34C113.625 38.34 112.616 38.1587 111.755 37.796C110.893 37.4333 110.225 36.912 109.749 36.232C109.295 35.5293 109.069 34.668 109.069 33.648C109.069 32.424 109.431 31.4153 110.157 30.622C110.905 29.806 112.072 29.2393 113.659 28.922L120.085 27.596L120.051 30.656L116.787 31.336C116.107 31.472 115.597 31.676 115.257 31.948C114.939 32.1973 114.781 32.5827 114.781 33.104C114.781 33.6027 114.962 33.9767 115.325 34.226C115.687 34.4753 116.118 34.6 116.617 34.6C117.002 34.6 117.365 34.5433 117.705 34.43C118.067 34.3167 118.385 34.1467 118.657 33.92C118.929 33.6707 119.144 33.3647 119.303 33.002C119.461 32.6393 119.541 32.2087 119.541 31.71V27.222ZM139.384 21H145.368L139.248 38H132.346L126.226 21H132.312L135.814 33.954L139.384 21ZM154.709 38.34C152.828 38.34 151.196 37.9887 149.813 37.286C148.453 36.5833 147.399 35.5747 146.651 34.26C145.903 32.9453 145.529 31.3587 145.529 29.5C145.529 27.6413 145.903 26.0547 146.651 24.74C147.399 23.4253 148.442 22.4167 149.779 21.714C151.139 21.0113 152.692 20.66 154.437 20.66C156.228 20.66 157.747 21.0113 158.993 21.714C160.263 22.394 161.226 23.346 161.883 24.57C162.541 25.7713 162.869 27.154 162.869 28.718C162.869 29.126 162.858 29.534 162.835 29.942C162.813 30.35 162.779 30.69 162.733 30.962H149.269V27.868H160.183L157.429 28.922C157.429 27.562 157.18 26.5193 156.681 25.794C156.205 25.0687 155.457 24.706 154.437 24.706C153.712 24.706 153.089 24.876 152.567 25.216C152.069 25.556 151.683 26.0887 151.411 26.814C151.162 27.5393 151.037 28.4687 151.037 29.602C151.037 30.7127 151.185 31.6193 151.479 32.322C151.774 33.002 152.193 33.5007 152.737 33.818C153.281 34.1127 153.939 34.26 154.709 34.26C155.571 34.26 156.251 34.09 156.749 33.75C157.271 33.41 157.656 32.934 157.905 32.322L162.529 33.852C162.212 34.8267 161.657 35.654 160.863 36.334C160.093 36.9913 159.163 37.49 158.075 37.83C157.01 38.17 155.888 38.34 154.709 38.34ZM171.135 13.792V32.22C171.135 32.968 171.259 33.5007 171.509 33.818C171.758 34.1353 172.177 34.294 172.767 34.294C173.107 34.294 173.39 34.2713 173.617 34.226C173.843 34.1807 174.115 34.1127 174.433 34.022L174.059 37.49C173.651 37.7393 173.118 37.9433 172.461 38.102C171.803 38.2607 171.157 38.34 170.523 38.34C168.709 38.34 167.395 37.9207 166.579 37.082C165.763 36.2433 165.355 34.872 165.355 32.968V13.792H171.135Z" fill="white"/>
<path d="M220.583 0L205 30.2266H214.181L220.583 18.2084L226.933 30.2266H236.042L220.583 0ZM236.042 30.2266L231.524 39.3566L226.933 30.2266H219.976L231.524 53L243 30.2266H236.042Z" fill="white"/>
</svg>
